<svg width="30" height="30" viewBox="0 0 30 30" fill="none" xmlns="http://www.w3.org/2000/svg">
<path d="M29.3731 4.58151C29.0281 2.77813 28.0115 1.35784 26.7208 0.875842C24.3813 0 15 0 15 0C15 0 5.61879 0 3.27919 0.875842C1.98847 1.35791 0.971904 2.77813 0.626879 4.58151C0 7.85025 0 14.6702 0 14.6702C0 14.6702 0 21.4901 0.626879 24.7588C0.971904 26.5622 1.98847 27.9233 3.27919 28.4053C5.61879 29.2812 15 29.2812 15 29.2812C15 29.2812 24.3812 29.2812 26.7208 28.4053C28.0115 27.9233 29.0281 26.5622 29.3731 24.7588C30 21.4901 30 14.6702 30 14.6702C30 14.6702 30 7.85025 29.3731 4.58151ZM11.9318 20.8621V8.47819L19.7727 14.6703L11.9318 20.8621Z" fill="black"/>
</svg>
