<svg width="30" height="30" viewBox="0 0 30 30" fill="none" xmlns="http://www.w3.org/2000/svg">
<path d="M25.5067 4.25492C22.7009 1.50981 18.9643 0 14.9933 0C6.79687 0 0.127232 6.50983 0.127232 14.5099C0.127232 17.0654 0.810268 19.5622 2.10938 21.7648L0 29.2812L7.8817 27.2615C10.0513 28.4184 12.4955 29.0263 14.9866 29.0263H14.9933C23.183 29.0263 30 22.5164 30 14.5164C30 10.6406 28.3125 7.00003 25.5067 4.25492ZM14.9933 26.5818C12.7701 26.5818 10.5937 26.0001 8.69866 24.9021L8.25 24.6406L3.57589 25.8367L4.82143 21.3857L4.52679 20.9282C3.28795 19.0066 2.63839 16.7909 2.63839 14.5099C2.63839 7.86278 8.18303 2.45099 15 2.45099C18.3013 2.45099 21.4018 3.7059 23.7321 5.98695C26.0625 8.26801 27.4955 11.2942 27.4888 14.5164C27.4888 21.17 21.8036 26.5818 14.9933 26.5818ZM21.7701 17.5491C21.4018 17.3661 19.5737 16.4903 19.2321 16.3726C18.8906 16.2484 18.6429 16.1896 18.3951 16.5556C18.1473 16.9216 17.4375 17.7321 17.2165 17.9805C17.0022 18.2223 16.7812 18.255 16.4129 18.072C14.2299 17.0066 12.7969 16.17 11.3571 13.7582C10.9754 13.1177 11.7388 13.1635 12.4487 11.7778C12.5692 11.536 12.5089 11.3268 12.4152 11.1438C12.3214 10.9608 11.5781 9.17651 11.2701 8.45101C10.9688 7.74513 10.6607 7.84317 10.433 7.8301C10.2188 7.81702 9.97098 7.81702 9.72321 7.81702C9.47545 7.81702 9.07366 7.90853 8.73214 8.26801C8.39062 8.63402 7.43304 9.50984 7.43304 11.2942C7.43304 13.0785 8.76562 14.804 8.94643 15.0458C9.13393 15.2876 11.5647 18.9478 15.2946 20.523C17.6518 21.5164 18.5759 21.6014 19.7545 21.4315C20.471 21.3269 21.9509 20.5556 22.2589 19.706C22.567 18.8563 22.567 18.1308 22.4732 17.9805C22.3862 17.8171 22.1384 17.7256 21.7701 17.5491Z" fill="black"/>
</svg>
